<mxfile host="65bd71144e" modified="2020-12-13T18:33:14.377Z" agent="5.0 (Windows NT 10.0; Win64; x64) AppleWebKit/537.36 (KHTML, like Gecko) Code/1.52.0 Chrome/83.0.4103.122 Electron/9.3.5 Safari/537.36" etag="k_M6rrP_Hp-7FhGkD4GH" version="13.10.0" type="embed">
    <diagram id="291eVCjqc_YEU0w2UVZr" name="Page-1">
        <mxGraphModel dx="948" dy="482" grid="1" gridSize="10" guides="1" tooltips="1" connect="1" arrows="1" fold="1" page="1" pageScale="1" pageWidth="827" pageHeight="1169" math="0" shadow="0">
            <root>
                <mxCell id="0"/>
                <mxCell id="1" parent="0"/>
                <mxCell id="6lKMELzQv69Brb3-hbK1-20" style="edgeStyle=orthogonalEdgeStyle;rounded=0;orthogonalLoop=1;jettySize=auto;html=1;entryX=0.5;entryY=0;entryDx=0;entryDy=0;" parent="1" source="6lKMELzQv69Brb3-hbK1-1" target="6lKMELzQv69Brb3-hbK1-6" edge="1">
                    <mxGeometry relative="1" as="geometry"/>
                </mxCell>
                <mxCell id="6lKMELzQv69Brb3-hbK1-21" style="edgeStyle=orthogonalEdgeStyle;rounded=0;orthogonalLoop=1;jettySize=auto;html=1;" parent="1" source="6lKMELzQv69Brb3-hbK1-1" target="6lKMELzQv69Brb3-hbK1-5" edge="1">
                    <mxGeometry relative="1" as="geometry"/>
                </mxCell>
                <mxCell id="6lKMELzQv69Brb3-hbK1-22" style="edgeStyle=orthogonalEdgeStyle;rounded=0;orthogonalLoop=1;jettySize=auto;html=1;entryX=0.5;entryY=0;entryDx=0;entryDy=0;" parent="1" source="6lKMELzQv69Brb3-hbK1-1" target="6lKMELzQv69Brb3-hbK1-12" edge="1">
                    <mxGeometry relative="1" as="geometry"/>
                </mxCell>
                <mxCell id="6lKMELzQv69Brb3-hbK1-23" style="edgeStyle=orthogonalEdgeStyle;rounded=0;orthogonalLoop=1;jettySize=auto;html=1;entryX=0.5;entryY=0;entryDx=0;entryDy=0;" parent="1" source="6lKMELzQv69Brb3-hbK1-1" target="6lKMELzQv69Brb3-hbK1-3" edge="1">
                    <mxGeometry relative="1" as="geometry">
                        <Array as="points">
                            <mxPoint x="420" y="110"/>
                            <mxPoint x="420" y="110"/>
                        </Array>
                    </mxGeometry>
                </mxCell>
                <mxCell id="6lKMELzQv69Brb3-hbK1-24" style="edgeStyle=orthogonalEdgeStyle;rounded=0;orthogonalLoop=1;jettySize=auto;html=1;entryX=0.5;entryY=0;entryDx=0;entryDy=0;" parent="1" source="6lKMELzQv69Brb3-hbK1-1" target="6lKMELzQv69Brb3-hbK1-4" edge="1">
                    <mxGeometry relative="1" as="geometry"/>
                </mxCell>
                <mxCell id="6lKMELzQv69Brb3-hbK1-28" style="edgeStyle=orthogonalEdgeStyle;rounded=0;orthogonalLoop=1;jettySize=auto;html=1;entryX=0.5;entryY=0;entryDx=0;entryDy=0;" parent="1" source="6lKMELzQv69Brb3-hbK1-1" target="6lKMELzQv69Brb3-hbK1-9" edge="1">
                    <mxGeometry relative="1" as="geometry"/>
                </mxCell>
                <mxCell id="6lKMELzQv69Brb3-hbK1-30" style="edgeStyle=orthogonalEdgeStyle;rounded=0;orthogonalLoop=1;jettySize=auto;html=1;entryX=0;entryY=0.25;entryDx=0;entryDy=0;" parent="1" source="6lKMELzQv69Brb3-hbK1-1" target="6lKMELzQv69Brb3-hbK1-2" edge="1">
                    <mxGeometry relative="1" as="geometry">
                        <Array as="points">
                            <mxPoint x="340" y="255"/>
                        </Array>
                    </mxGeometry>
                </mxCell>
                <mxCell id="3" style="edgeStyle=orthogonalEdgeStyle;rounded=0;orthogonalLoop=1;jettySize=auto;html=1;entryX=0.5;entryY=0;entryDx=0;entryDy=0;" parent="1" source="6lKMELzQv69Brb3-hbK1-1" target="2" edge="1">
                    <mxGeometry relative="1" as="geometry"/>
                </mxCell>
                <mxCell id="6lKMELzQv69Brb3-hbK1-1" value="Home" style="rounded=0;whiteSpace=wrap;html=1;" parent="1" vertex="1">
                    <mxGeometry x="320" y="40" width="120" height="60" as="geometry"/>
                </mxCell>
                <mxCell id="6lKMELzQv69Brb3-hbK1-31" style="edgeStyle=orthogonalEdgeStyle;rounded=0;orthogonalLoop=1;jettySize=auto;html=1;entryX=1;entryY=0.5;entryDx=0;entryDy=0;dashed=1;" parent="1" source="6lKMELzQv69Brb3-hbK1-2" target="6lKMELzQv69Brb3-hbK1-9" edge="1">
                    <mxGeometry relative="1" as="geometry">
                        <Array as="points">
                            <mxPoint x="420" y="340"/>
                        </Array>
                    </mxGeometry>
                </mxCell>
                <mxCell id="6lKMELzQv69Brb3-hbK1-2" value="Product Detail" style="rounded=0;whiteSpace=wrap;html=1;" parent="1" vertex="1">
                    <mxGeometry x="360" y="240" width="120" height="60" as="geometry"/>
                </mxCell>
                <mxCell id="6lKMELzQv69Brb3-hbK1-27" style="edgeStyle=orthogonalEdgeStyle;rounded=0;orthogonalLoop=1;jettySize=auto;html=1;entryX=0.5;entryY=0;entryDx=0;entryDy=0;" parent="1" source="6lKMELzQv69Brb3-hbK1-3" target="6lKMELzQv69Brb3-hbK1-2" edge="1">
                    <mxGeometry relative="1" as="geometry"/>
                </mxCell>
                <mxCell id="6lKMELzQv69Brb3-hbK1-3" value="Product Category" style="rounded=0;whiteSpace=wrap;html=1;" parent="1" vertex="1">
                    <mxGeometry x="360" y="150" width="120" height="60" as="geometry"/>
                </mxCell>
                <mxCell id="6lKMELzQv69Brb3-hbK1-25" style="edgeStyle=orthogonalEdgeStyle;rounded=0;orthogonalLoop=1;jettySize=auto;html=1;entryX=0;entryY=0.5;entryDx=0;entryDy=0;exitX=0.5;exitY=1;exitDx=0;exitDy=0;" parent="1" source="6lKMELzQv69Brb3-hbK1-4" target="6lKMELzQv69Brb3-hbK1-2" edge="1">
                    <mxGeometry relative="1" as="geometry"/>
                </mxCell>
                <mxCell id="6lKMELzQv69Brb3-hbK1-4" value="Product Search Results" style="rounded=0;whiteSpace=wrap;html=1;" parent="1" vertex="1">
                    <mxGeometry x="170" y="150" width="120" height="60" as="geometry"/>
                </mxCell>
                <mxCell id="6lKMELzQv69Brb3-hbK1-5" value="User Profile" style="rounded=0;whiteSpace=wrap;html=1;" parent="1" vertex="1">
                    <mxGeometry x="520" y="240" width="120" height="60" as="geometry"/>
                </mxCell>
                <mxCell id="6lKMELzQv69Brb3-hbK1-17" style="edgeStyle=orthogonalEdgeStyle;rounded=0;orthogonalLoop=1;jettySize=auto;html=1;entryX=0;entryY=0.5;entryDx=0;entryDy=0;" parent="1" source="6lKMELzQv69Brb3-hbK1-6" target="6lKMELzQv69Brb3-hbK1-13" edge="1">
                    <mxGeometry relative="1" as="geometry"/>
                </mxCell>
                <mxCell id="6lKMELzQv69Brb3-hbK1-18" style="edgeStyle=orthogonalEdgeStyle;rounded=0;orthogonalLoop=1;jettySize=auto;html=1;entryX=0;entryY=0.5;entryDx=0;entryDy=0;" parent="1" source="6lKMELzQv69Brb3-hbK1-6" target="6lKMELzQv69Brb3-hbK1-14" edge="1">
                    <mxGeometry relative="1" as="geometry"/>
                </mxCell>
                <mxCell id="6" style="edgeStyle=orthogonalEdgeStyle;rounded=0;orthogonalLoop=1;jettySize=auto;html=1;entryX=1;entryY=0.5;entryDx=0;entryDy=0;" edge="1" parent="1" source="6lKMELzQv69Brb3-hbK1-6" target="4">
                    <mxGeometry relative="1" as="geometry"/>
                </mxCell>
                <mxCell id="8" style="edgeStyle=orthogonalEdgeStyle;rounded=0;orthogonalLoop=1;jettySize=auto;html=1;entryX=1;entryY=0.5;entryDx=0;entryDy=0;" edge="1" parent="1" source="6lKMELzQv69Brb3-hbK1-6" target="7">
                    <mxGeometry relative="1" as="geometry"/>
                </mxCell>
                <mxCell id="6lKMELzQv69Brb3-hbK1-6" value="Admin Panel" style="rounded=0;whiteSpace=wrap;html=1;" parent="1" vertex="1">
                    <mxGeometry x="840" y="150" width="120" height="60" as="geometry"/>
                </mxCell>
                <mxCell id="6lKMELzQv69Brb3-hbK1-7" value="Create Product" style="rounded=0;whiteSpace=wrap;html=1;" parent="1" vertex="1">
                    <mxGeometry x="1000" y="310" width="120" height="60" as="geometry"/>
                </mxCell>
                <mxCell id="6lKMELzQv69Brb3-hbK1-29" style="edgeStyle=orthogonalEdgeStyle;rounded=0;orthogonalLoop=1;jettySize=auto;html=1;entryX=0.5;entryY=0;entryDx=0;entryDy=0;" parent="1" source="6lKMELzQv69Brb3-hbK1-9" target="6lKMELzQv69Brb3-hbK1-10" edge="1">
                    <mxGeometry relative="1" as="geometry"/>
                </mxCell>
                <mxCell id="6lKMELzQv69Brb3-hbK1-9" value="Shopping Cart&lt;br&gt;Add / delete items" style="rounded=0;whiteSpace=wrap;html=1;" parent="1" vertex="1">
                    <mxGeometry x="30" y="310" width="120" height="60" as="geometry"/>
                </mxCell>
                <mxCell id="6lKMELzQv69Brb3-hbK1-33" style="edgeStyle=orthogonalEdgeStyle;rounded=0;orthogonalLoop=1;jettySize=auto;html=1;entryX=0;entryY=0.5;entryDx=0;entryDy=0;dashed=1;startArrow=classic;startFill=1;" parent="1" source="6lKMELzQv69Brb3-hbK1-10" target="6lKMELzQv69Brb3-hbK1-32" edge="1">
                    <mxGeometry relative="1" as="geometry"/>
                </mxCell>
                <mxCell id="6lKMELzQv69Brb3-hbK1-10" value="Payment" style="rounded=0;whiteSpace=wrap;html=1;" parent="1" vertex="1">
                    <mxGeometry x="30" y="400" width="120" height="60" as="geometry"/>
                </mxCell>
                <mxCell id="6lKMELzQv69Brb3-hbK1-12" value="Registration" style="rounded=0;whiteSpace=wrap;html=1;" parent="1" vertex="1">
                    <mxGeometry x="520" y="150" width="120" height="60" as="geometry"/>
                </mxCell>
                <mxCell id="6lKMELzQv69Brb3-hbK1-19" style="edgeStyle=orthogonalEdgeStyle;rounded=0;orthogonalLoop=1;jettySize=auto;html=1;entryX=0;entryY=0.5;entryDx=0;entryDy=0;" parent="1" source="6lKMELzQv69Brb3-hbK1-13" target="6lKMELzQv69Brb3-hbK1-7" edge="1">
                    <mxGeometry relative="1" as="geometry"/>
                </mxCell>
                <mxCell id="6lKMELzQv69Brb3-hbK1-13" value="Product List&lt;br&gt;(Edit / Delete)" style="rounded=0;whiteSpace=wrap;html=1;" parent="1" vertex="1">
                    <mxGeometry x="920" y="230" width="120" height="60" as="geometry"/>
                </mxCell>
                <mxCell id="6lKMELzQv69Brb3-hbK1-35" style="edgeStyle=orthogonalEdgeStyle;rounded=0;orthogonalLoop=1;jettySize=auto;html=1;entryX=0;entryY=0.5;entryDx=0;entryDy=0;startArrow=none;startFill=0;" parent="1" source="6lKMELzQv69Brb3-hbK1-14" target="6lKMELzQv69Brb3-hbK1-34" edge="1">
                    <mxGeometry relative="1" as="geometry"/>
                </mxCell>
                <mxCell id="6lKMELzQv69Brb3-hbK1-14" value="User List&lt;br&gt;(Edit / Delete)" style="rounded=0;whiteSpace=wrap;html=1;" parent="1" vertex="1">
                    <mxGeometry x="920" y="395" width="120" height="60" as="geometry"/>
                </mxCell>
                <mxCell id="6lKMELzQv69Brb3-hbK1-32" value="Payment Service Provider" style="rounded=0;whiteSpace=wrap;html=1;dashed=1;" parent="1" vertex="1">
                    <mxGeometry x="240" y="400" width="120" height="60" as="geometry"/>
                </mxCell>
                <mxCell id="6lKMELzQv69Brb3-hbK1-34" value="Registration" style="rounded=0;whiteSpace=wrap;html=1;" parent="1" vertex="1">
                    <mxGeometry x="1000" y="480" width="120" height="60" as="geometry"/>
                </mxCell>
                <mxCell id="2" value="Contact Us" style="rounded=0;whiteSpace=wrap;html=1;" parent="1" vertex="1">
                    <mxGeometry x="680" y="150" width="120" height="60" as="geometry"/>
                </mxCell>
                <mxCell id="4" value="Sales Statistics" style="rounded=0;whiteSpace=wrap;html=1;" vertex="1" parent="1">
                    <mxGeometry x="760" y="290" width="120" height="60" as="geometry"/>
                </mxCell>
                <mxCell id="7" value="Stock / Inventory" style="rounded=0;whiteSpace=wrap;html=1;" vertex="1" parent="1">
                    <mxGeometry x="760" y="395" width="120" height="60" as="geometry"/>
                </mxCell>
            </root>
        </mxGraphModel>
    </diagram>
</mxfile>